Coordinates
version=1
nRows=21
nColumns=22
inDegrees=yes

Units are S.I. units (second, meters, Newtons, ...)
If the header above contains a line with 'inDegrees', this indicates whether rotational values are in degrees (yes) or radians (no).

endheader
time	pelvis_tilt	pelvis_list	pelvis_rotation	pelvis_tx	pelvis_ty	pelvis_tz	hip_flexion_r	hip_adduction_r	hip_rotation_r	knee_angle_r	ankle_angle_r	subtalar_angle_r	hip_flexion_l	hip_adduction_l	hip_rotation_l	knee_angle_l	ankle_angle_l	subtalar_angle_l	lumbar_extension	lumbar_bending	lumbar_rotation
      1.82000000	      3.03304733	     -1.37362521	     59.52615267	      0.75874384	      1.04873148	      0.64554043	     21.02258836	      2.68056003	      4.31269752	     -7.83914878	      8.85254943	     15.18753513	    -12.37650747	      6.74925253	     21.90898567	    -15.51906286	     16.39564880	    -11.30316671	     -4.20557013	     -1.01919444	     -8.79979096
      1.83000000	      3.12899179	     -1.34241411	     60.14824977	      0.76418621	      1.04790329	      0.63626565	     20.94441813	      2.97714302	      4.73922922	     -8.76245974	      8.47460425	     14.25684908	    -12.80010527	      6.58420623	     22.09270762	    -16.05716593	     16.23057940	    -10.93618964	     -4.15374780	     -0.94458535	     -8.99079701
      1.84000000	      3.25453093	     -1.31001724	     60.80120642	      0.76956610	      1.04725283	      0.62681166	     20.84946987	      3.28540487	      5.29308937	     -9.81516928	      7.89061722	     13.19933324	    -13.19424758	      6.38899815	     22.28386163	    -16.67825833	     16.00597239	    -10.51263525	     -4.11478424	     -0.83328669	     -9.18880719
      1.85000000	      3.42326130	     -1.29900879	     61.49648682	      0.77486489	      1.04681674	      0.61716071	     20.73076048	      3.62208613	      5.96366130	    -10.90394535	      7.10698917	     12.08663935	    -13.53583962	      6.13743510	     22.47293147	    -17.39003382	     15.67366068	    -10.01847478	     -4.06729296	     -0.65268049	     -9.43606140
      1.86000000	      3.63216728	     -1.30281789	     62.22031079	      0.78006859	      1.04662459	      0.60732889	     20.59557294	      3.98109930	      6.70699760	    -12.00305656	      6.19473607	     10.98355942	    -13.81193379	      5.84283324	     22.63100205	    -18.21391197	     15.22210502	     -9.42414554	     -4.01543597	     -0.40814976	     -9.70330224
      1.87000000	      3.86654456	     -1.31768747	     62.95988802	      0.78519602	      1.04668619	      0.59731368	     20.45455106	      4.34470099	      7.45083357	    -13.10060737	      5.27585515	      9.93638475	    -14.01224389	      5.52507591	     22.75941198	    -19.15328286	     14.60209153	     -8.66734086	     -3.94887016	     -0.12016489	     -9.97458730
      1.88000000	      4.13212741	     -1.35423147	     63.71005018	      0.79023038	      1.04696909	      0.58713189	     20.31168630	      4.71501160	      8.12753804	    -14.17601019	      4.41278974	      9.00674245	    -14.09206730	      5.18163837	     22.78730687	    -20.26703793	     13.87395285	     -7.75054600	     -3.85962936	      0.22440192	    -10.24638512
      1.89000000	      4.37405533	     -1.37840905	     64.45045658	      0.79518889	      1.04747722	      0.57675876	     20.17255204	      5.02422748	      8.66261286	    -15.25985129	      3.74283220	      8.14352815	    -14.08037769	      4.88043718	     22.76277192	    -21.50292298	     12.90463219	     -6.49432461	     -3.74710754	      0.54560411	    -10.48184348
      1.90000000	      4.61207750	     -1.41565666	     65.20432741	      0.80002380	      1.04815109	      0.56623896	     20.00875353	      5.28781748	      9.04035085	    -16.26891138	      3.25158452	      7.38541011	    -13.91497220	      4.59130134	     22.63044242	    -22.93684140	     11.78474343	     -4.93616502	     -3.60189414	      0.87908585	    -10.71783601
      1.91000000	      4.81534748	     -1.43163696	     65.96411652	      0.80472657	      1.04901009	      0.55561355	     19.79756531	      5.46307969	      9.22281438	    -17.20273681	      3.00632868	      6.70861114	    -13.62182317	      4.35354366	     22.41903000	    -24.53709210	     10.42593490	     -2.93044142	     -3.45121351	      1.16551867	    -10.92193362
      1.92000000	      5.00648519	     -1.42500309	     66.72561913	      0.80929483	      1.05002919	      0.54496096	     19.50341995	      5.57955378	      9.23977300	    -18.01902961	      3.01393591	      6.10146237	    -13.19291730	      4.13949718	     22.08022512	    -26.31832446	      8.88425367	     -0.41952670	     -3.31786544	      1.42809198	    -11.08943552
      1.93000000	      5.19338970	     -1.41289507	     67.52943488	      0.81364697	      1.05120068	      0.53434513	     19.09849673	      5.64236133	      9.07198060	    -18.63048939	      3.16620803	      5.52388743	    -12.59264484	      3.92588846	     21.66327203	    -28.30199511	      7.15613145	      2.54875722	     -3.19867487	      1.68030689	    -11.24725138
      1.94000000	      5.38622068	     -1.39338026	     68.37789140	      0.81776737	      1.05249443	      0.52385134	     18.57750857	      5.66915542	      8.71088929	    -19.03117570	      3.44391308	      4.95310437	    -11.81530116	      3.69711534	     21.16586690	    -30.48665043	      5.27289980	      5.91295615	     -3.11093924	      1.93067818	    -11.39542502
      1.95000000	      5.59588095	     -1.36682668	     69.25717501	      0.82166189	      1.05388250	      0.51355904	     17.93699726	      5.68311998	      8.17682904	    -19.21128760	      3.79658599	      4.41535902	    -10.85820963	      3.43937031	     20.57782515	    -32.86370126	      3.26641785	      9.51869067	     -3.06679119	      2.18896222	    -11.50547986
      1.96000000	      5.82763986	     -1.34264091	     70.16066072	      0.82532547	      1.05530556	      0.50353959	     17.19974869	      5.70281325	      7.48100434	    -19.18634887	      4.18695024	      3.92618696	     -9.70823445	      3.14342939	     19.91081610	    -35.43168838	      1.17506570	     13.11709221	     -3.06519987	      2.46586035	    -11.57493503
      1.97000000	      6.08352767	     -1.32518224	     71.07177140	      0.82881245	      1.05672221	      0.49383879	     16.38279623	      5.74683288	      6.66446669	    -18.97416273	      4.59485602	      3.51375562	     -8.36803486	      2.79410892	     19.14374462	    -38.16118286	     -0.97872598	     16.41750730	     -3.10086838	      2.75856841	    -11.57205288
      1.98000000	      6.34951698	     -1.29694522	     71.94233024	      0.83217741	      1.05812244	      0.48451014	     15.49939176	      5.81970003	      5.84107036	    -18.61812659	      4.97160713	      3.20393976	     -6.87243132	      2.41488737	     18.27619608	    -41.00733892	     -3.20952883	     19.25227769	     -3.19293444	      3.04820389	    -11.46195042
      1.99000000	      6.64779128	     -1.29976558	     72.78557933	      0.83543761	      1.05940041	      0.47554203	     14.61269815	      5.95700342	      4.98764421	    -18.16628035	      5.35068910	      2.96472403	     -5.19667761	      1.95476653	     17.32037368	    -43.95068416	     -5.43314439	     21.39290959	     -3.29593278	      3.37481470	    -11.26267067
      2.00000000	      6.97148161	     -1.30769738	     73.56230123	      0.83868751	      1.06060139	      0.46691897	     13.71100265	      6.16154444	      4.20454330	    -17.64469453	      5.69731173	      2.81214157	     -3.41160590	      1.42287973	     16.28808685	    -46.90296127	     -7.62224043	     22.84229289	     -3.42875025	      3.71473745	    -10.94136246
      2.01000000	      7.33351029	     -1.29656639	     74.25178381	      0.84197697	      1.06177127	      0.45858458	     12.77154945	      6.44556969	      3.53913842	    -17.06888672	      6.00985591	      2.73254296	     -1.59739517	      0.81413741	     15.21534422	    -49.78496722	     -9.67128404	     23.55953906	     -3.61464194	      4.07543625	    -10.48835466
      2.02000000	      7.66084002	     -1.28425904	     74.83366518	      0.84532881	      1.06287590	      0.45055053	     11.86715004	      6.74488069	      3.03850456	    -16.50468044	      6.27581483	      2.68091923	      0.24523592	      0.21228127	     14.15285988	    -52.52845242	    -11.47944414	     23.81665761	     -3.80907548	      4.38057652	     -9.91823671
